<svg xmlns="http://www.w3.org/2000/svg" xmlns:xlink="http://www.w3.org/1999/xlink" width="77" height="49" viewBox="0 0 77 49">
  <defs>
    <clipPath id="clip-path">
      <rect id="Rectangle_317" data-name="Rectangle 317" width="77" height="49" fill="none"/>
    </clipPath>
  </defs>
  <g id="Group_620" data-name="Group 620" transform="translate(-87.688 -156.54)">
    <g id="Group_617" data-name="Group 617" transform="translate(87.688 156.54)">
      <g id="Group_616" data-name="Group 616" clip-path="url(#clip-path)">
        <path id="Path_68" data-name="Path 68" d="M149.341,164.247l.842,1.729a1.2,1.2,0,0,0,.9.662l1.882.277a1.217,1.217,0,0,1,.663,2.068l-1.362,1.345a1.221,1.221,0,0,0-.344,1.073l.321,1.9a1.2,1.2,0,0,1-1.735,1.278l-1.684-.9a1.182,1.182,0,0,0-1.113,0l-1.684.9a1.2,1.2,0,0,1-1.735-1.278l.321-1.9a1.224,1.224,0,0,0-.344-1.073l-1.362-1.345a1.217,1.217,0,0,1,.663-2.068l1.882-.277a1.2,1.2,0,0,0,.9-.662l.842-1.729A1.189,1.189,0,0,1,149.341,164.247Zm-9.576,13.038a11.9,11.9,0,0,1-3.193-8.139A11.7,11.7,0,1,1,148.269,181a11.591,11.591,0,0,1-8.5-3.715m15.753-13.722a9.266,9.266,0,0,1,1.855,5.583,9.105,9.105,0,1,1-9.1-9.226,8.982,8.982,0,0,1,4.9,1.45m-18.74,18.664,2.4-.02m-1.211-1.208.019,2.436m26.275-18.37,2.4-.019m-1.211-1.209.019,2.437m-4.2-4.784,2.4-.019m-1.211-1.208.019,2.436M148.269,181.2v6.559l7,1.781V178.6m-7,2.425v6.732l-7,1.781V178.6" transform="translate(-87.328 -156.534)" fill="none" stroke="#4d4d4f" stroke-miterlimit="10" stroke-width="1.5"/>
        <path id="Path_69" data-name="Path 69" d="M97.346,177.876h-3.9a1.512,1.512,0,0,1-1.42-1.59v-3.014h6.743v3.014a1.512,1.512,0,0,1-1.42,1.59" transform="translate(-87.654 -156.403)" fill="#4d4d4f"/>
        <path id="Path_70" data-name="Path 70" d="M100.363,162.36h2.514m-5.83,2.746H94.055v-3.183M88.438,163.5l3.136-.017v-3.247m5.474,3.836,3.136-.017v-3.247M95.4,169.261h1.651v-9.323M95.4,172.206v-3.917H88.438v-6.857" transform="translate(-87.682 -156.512)" fill="none" stroke="#4d4d4f" stroke-miterlimit="10" stroke-width="1.5"/>
      </g>
    </g>
    <rect id="Rectangle_318" data-name="Rectangle 318" width="13.348" height="2.591" transform="translate(88.845 179.652)" fill="#4d4d4f"/>
    <g id="Group_619" data-name="Group 619" transform="translate(87.688 156.54)">
      <g id="Group_618" data-name="Group 618" clip-path="url(#clip-path)">
        <path id="Path_71" data-name="Path 71" d="M127.522,185.133,131,205.279m-22.933,0,3.48-20.146m-3.211-17.138h22.394a1.518,1.518,0,0,1,1.425,1.6v.76H106.914v-.76A1.518,1.518,0,0,1,108.338,167.995Zm15.96,2.357-1.611,12.606m5.981-12.606-3.222,12.606m5.508-12.606-3.222,12.606m-19.616-12.606,3.223,12.606m-.935-12.606,3.222,12.606m1.137-12.606,1.61,12.606m3.2-12.606v12.606M100.42,205.446V182.054m-9.811,23.392V182.054" transform="translate(-87.665 -156.446)" fill="none" stroke="#4d4d4f" stroke-miterlimit="10" stroke-width="1.5"/>
      </g>
    </g>
    <path id="Path_72" data-name="Path 72" d="M130.1,185.459H108.487l-1.072-3.48H131.17Z" transform="translate(0.221 0.226)" fill="#4d4d4f"/>
  </g>
</svg>
